<?xml version="1.0" standalone="no"?>
<!DOCTYPE svg PUBLIC "-//W3C//DTD SVG 20010904//EN"
 "http://www.w3.org/TR/2001/REC-SVG-20010904/DTD/svg10.dtd">
<svg version="1.0" xmlns="http://www.w3.org/2000/svg"
 width="256.000000pt" height="256.000000pt" viewBox="0 0 256.000000 256.000000"
 preserveAspectRatio="xMidYMid meet">

<g transform="translate(0.000000,256.000000) scale(0.100000,-0.100000)"
fill="#000000" stroke="none">
<path d="M999 2301 l-24 -19 25 -21 c14 -11 33 -23 43 -26 26 -9 21 -20 -17
-33 -18 -7 -52 -26 -75 -43 l-42 -30 42 -52 c24 -29 46 -55 49 -60 3 -4 39 4
80 18 97 33 214 35 297 3 l57 -21 48 53 c56 62 55 66 -36 112 l-60 30 23 19
c12 10 34 27 49 37 l26 20 -34 17 -33 17 -41 -45 -41 -46 -114 3 -114 3 -34
41 c-19 23 -38 42 -43 42 -4 0 -18 -9 -31 -19z m71 -152 c0 -5 -7 -9 -15 -9
-15 0 -20 12 -9 23 8 8 24 -1 24 -14z m320 0 c0 -5 -7 -9 -15 -9 -15 0 -20 12
-9 23 8 8 24 -1 24 -14z"/>
<path d="M861 2089 c-27 -22 -29 -20 57 -82 87 -63 141 -77 304 -77 168 0 216
13 316 87 l74 55 -32 19 -32 20 -37 -42 c-20 -24 -43 -51 -51 -61 -14 -18 -18
-18 -89 7 -104 35 -186 34 -290 -4 l-80 -29 -53 64 c-29 35 -55 64 -58 64 -3
-1 -16 -10 -29 -21z m487 -87 c15 -6 36 -13 47 -17 39 -15 -25 -23 -175 -23
-178 -1 -204 6 -122 33 64 22 201 25 250 7z"/>
<path d="M1070 1895 c0 -13 23 -15 150 -15 127 0 150 2 150 15 0 13 -23 15
-150 15 -127 0 -150 -2 -150 -15z"/>
<path d="M1073 1848 c3 -10 41 -13 147 -13 106 0 144 3 148 13 3 9 -31 12
-148 12 -117 0 -151 -3 -147 -12z"/>
<path d="M1070 1800 c0 -6 57 -10 150 -10 93 0 150 4 150 10 0 6 -57 10 -150
10 -93 0 -150 -4 -150 -10z"/>
<path d="M1070 1755 c0 -13 23 -15 150 -15 127 0 150 2 150 15 0 13 -23 15
-150 15 -127 0 -150 -2 -150 -15z"/>
<path d="M1070 1650 l0 -70 150 0 150 0 0 70 0 70 -150 0 -150 0 0 -70z"/>
<path d="M1113 1555 c-3 -10 14 -37 46 -75 28 -32 51 -65 51 -73 0 -12 39 -16
239 -22 131 -4 244 -11 250 -14 6 -4 -42 -13 -107 -20 -662 -70 -754 -84 -760
-114 -3 -15 6 -17 80 -17 47 0 212 11 369 24 380 33 539 42 539 29 0 -14 -97
-27 -490 -68 -302 -31 -387 -44 -406 -63 -31 -31 1 -37 214 -40 223 -4 392 4
392 19 0 5 -121 10 -282 10 -327 2 -319 5 112 49 309 32 459 53 491 71 21 11
25 34 8 45 -22 13 -261 4 -540 -21 -251 -22 -394 -30 -349 -19 8 2 125 15 260
29 333 34 500 55 529 66 21 9 23 12 10 24 -19 19 -163 34 -359 36 -85 1 -158
4 -163 6 -4 2 15 33 43 69 28 35 49 68 45 74 -4 6 -51 10 -111 10 -85 0 -106
-3 -111 -15z"/>
<path d="M310 755 l0 -205 40 0 39 0 3 78 3 77 78 3 77 3 0 44 0 45 -81 0 -80
0 3 33 3 32 128 0 127 0 0 48 0 47 -170 0 -170 0 0 -205z"/>
<path d="M690 755 l0 -205 140 0 140 0 0 45 0 45 -95 0 -95 0 0 160 0 160 -45
0 -45 0 0 -205z"/>
<path d="M1077 939 c-56 -43 -60 -148 -7 -201 28 -28 29 -28 158 -28 139 0
161 -7 147 -50 -6 -19 -14 -20 -186 -20 l-179 0 0 -45 0 -45 193 0 c212 1 216
2 242 63 19 45 19 90 1 125 -30 57 -41 61 -186 64 l-135 3 0 30 0 30 113 3
112 3 0 44 0 45 -124 0 c-109 0 -126 -2 -149 -21z"/>
<path d="M1480 818 c0 -157 10 -209 45 -244 23 -23 30 -24 158 -24 l133 0 28
28 c14 16 29 44 32 63 5 30 0 40 -35 78 l-41 44 0 -49 c0 -74 -2 -75 -121 -72
l-104 3 -3 158 -3 157 -44 0 -45 0 0 -142z"/>
<path d="M1800 885 c0 -74 1 -75 38 -109 l37 -35 5 36 5 35 95 -131 95 -130
52 -1 52 0 -147 205 -147 204 -42 1 -43 0 0 -75z"/>
<path d="M2066 810 c58 -82 107 -150 110 -150 2 0 4 68 4 150 l0 150 -110 0
-109 0 105 -150z"/>
</g>
</svg>
